# xmcd
#
# Track frame offsets:
#	150
#	17548
#	31422
#	47140
#	62163
#	74834
#	89755
#	105792
#	115637
#	128580
#	141958
#	156375
#
# Disc length: 2210 seconds
#
# Revision: 1
# Processed by: cddbd v1.5.2PL0 Copyright (c) Steve Scherf et al.
# Submitted via: EZCDAudioConverter 8.3.2.1
#
DISCID=a408a00c
DTITLE=Λιδάκης Μανώλης - Χρυσή δισκοθήκη-Λιδάκης Μανώλης
DYEAR=2008
DGENRE=Νεώτερη λαϊκή
TTITLE0=Κουράστικα να υποκρίνομαι [Αντ. Βαρδής-Αντ. Ανδρικάκης]
TTITLE1=Φως [Τάκης Μπουγάς-Αντ. Ανδρικάκης]
TTITLE2=Μετά από σένανε [Γ. Κατσαρός-Γ. Πάριος]
TTITLE3=Ζήσε όπως σ' αρέσει [Αλ. Παπαδημητρίου-Θάνος Σοφός]
TTITLE4=Μιά χαμένη παρτίδα [Αλ. Παπαδημητρίου-Θάνος Σοφός]
TTITLE5=Κάνε εσύ το πρώτο βήμα [Αντ. Βαρδής-Γ. Πάριος]
TTITLE6=Να μπορούσα [Αντ. Βαρδής-Γ. Μίτσιγκας]
TTITLE7=Κι όλο λέω να φύγω [Γ. Κατσαρός-Γ. Πάριος]
TTITLE8=Θα μπορούσα να φύγω [Αλ. Παπαδημητρίου-Θάνος Σοφός]
TTITLE9=Πόσο άλλαξες Μαρία [Αλ. Παπαδημητρίου-Θάνος Σοφός]
TTITLE10=Πού να είσαι [Αντ. Βαρδής-Σαράντης Αλιβιζάτος]
TTITLE11=Τρελλή (τρελή)[Τ. Μπουγάς-Αντ. Ανδρικάκης]
EXTD=
EXTT0=
EXTT1=
EXTT2=
EXTT3=
EXTT4=
EXTT5=
EXTT6=
EXTT7=
EXTT8=
EXTT9=
EXTT10=
EXTT11=
PLAYORDER=
